<svg width="73" height="55" viewBox="0 0 73 55" fill="none" xmlns="http://www.w3.org/2000/svg">
<path d="M61.8379 4.60624C57.1125 2.45437 52.0599 0.89049 46.7775 0C46.1287 1.14158 45.3708 2.67702 44.8483 3.89846C39.2329 3.07654 33.6692 3.07654 28.1572 3.89846C27.6347 2.67702 26.8596 1.14158 26.2051 0C20.917 0.89049 15.8585 2.46012 11.1331 4.61763C1.60187 18.6359 -0.981884 32.306 0.309996 45.782C6.6316 50.3767 12.758 53.1679 18.781 54.9944C20.2681 53.0023 21.5944 50.8847 22.737 48.653C20.5609 47.8482 18.4767 46.8551 16.5073 45.7021C17.0298 45.3254 17.5409 44.9315 18.0346 44.5262C30.0462 49.9943 43.0971 49.9943 54.9652 44.5262C55.4647 44.9315 55.9756 45.3254 56.4924 45.7021C54.5173 46.8607 52.4273 47.8539 50.2512 48.6588C51.3938 50.8847 52.7144 53.0081 54.2072 55C60.236 53.1735 66.3681 50.3825 72.6897 45.782C74.2056 30.1599 70.1003 16.6153 61.8379 4.60624ZM24.3734 37.4944C20.7677 37.4944 17.8106 34.2181 17.8106 30.2283C17.8106 26.2386 20.7045 22.9567 24.3734 22.9567C28.0424 22.9567 30.9993 26.2329 30.9362 30.2283C30.9419 34.2181 28.0424 37.4944 24.3734 37.4944ZM48.6263 37.4944C45.0206 37.4944 42.0636 34.2181 42.0636 30.2283C42.0636 26.2386 44.9573 22.9567 48.6263 22.9567C52.2952 22.9567 55.2523 26.2329 55.1891 30.2283C55.1891 34.2181 52.2952 37.4944 48.6263 37.4944Z" fill="white"/>
</svg>
