<svg width="1011" height="1011" viewBox="0 0 1011 1011" fill="none" xmlns="http://www.w3.org/2000/svg">
<g clip-path="url(#clip0_997_13)">
<path d="M916.219 505.5C916.219 614.429 872.947 718.897 795.922 795.922C718.897 872.947 614.429 916.219 505.5 916.219C396.571 916.219 292.103 872.947 215.078 795.922C138.053 718.897 94.7813 614.429 94.7812 505.5C94.7813 396.571 138.053 292.103 215.078 215.078C292.103 138.053 396.571 94.7813 505.5 94.7812C614.429 94.7813 718.897 138.053 795.922 215.078C872.947 292.103 916.219 396.571 916.219 505.5ZM505.5 0C371.433 0 242.857 53.2579 148.058 148.058C53.2579 242.857 0 371.433 0 505.5C0 639.567 53.2579 768.143 148.058 862.943C242.857 957.742 371.433 1011 505.5 1011C639.567 1011 768.143 957.742 862.943 862.943C957.742 768.143 1011 639.567 1011 505.5C1011 371.433 957.742 242.857 862.943 148.058C768.143 53.2579 639.567 0 505.5 0ZM348.321 473.906C365.079 473.906 381.151 467.249 393.001 455.399C404.851 443.549 411.509 427.477 411.509 410.719C411.509 393.96 404.851 377.888 393.001 366.038C381.151 354.188 365.079 347.531 348.321 347.531C331.563 347.531 315.491 354.188 303.641 366.038C291.791 377.888 285.134 393.96 285.134 410.719C285.134 427.477 291.791 443.549 303.641 455.399C315.491 467.249 331.563 473.906 348.321 473.906ZM727.446 410.719C727.446 393.96 720.789 377.888 708.939 366.038C697.089 354.188 681.017 347.531 664.259 347.531C647.5 347.531 631.428 354.188 619.578 366.038C607.728 377.888 601.071 393.96 601.071 410.719C601.071 427.477 607.728 443.549 619.578 455.399C631.428 467.249 647.5 473.906 664.259 473.906C681.017 473.906 697.089 467.249 708.939 455.399C720.789 443.549 727.446 427.477 727.446 410.719ZM363.328 647.672C337.066 647.672 315.938 668.8 315.938 695.062C315.938 721.325 337.066 742.453 363.328 742.453H647.672C673.934 742.453 695.062 721.325 695.062 695.062C695.062 668.8 673.934 647.672 647.672 647.672H363.328Z" fill="#FFFFFF"/>
</g>
<defs>
<clipPath id="clip0_997_13">
<rect width="1011" height="1011" fill="white"/>
</clipPath>
</defs>
</svg>
