<svg width="1011" height="1011" viewBox="0 0 1011 1011" fill="none" xmlns="http://www.w3.org/2000/svg">
<g clip-path="url(#clip0_997_11)">
<path fill-rule="evenodd" clip-rule="evenodd" d="M902.679 505.5C902.679 610.838 860.833 711.862 786.348 786.348C711.862 860.833 610.838 902.679 505.5 902.679C400.162 902.679 299.138 860.833 224.652 786.348C150.167 711.862 108.321 610.838 108.321 505.5C108.321 400.162 150.167 299.138 224.652 224.652C299.138 150.167 400.162 108.321 505.5 108.321C610.838 108.321 711.862 150.167 786.348 224.652C860.833 299.138 902.679 400.162 902.679 505.5ZM1011 505.5C1011 639.567 957.742 768.143 862.942 862.942C768.143 957.742 639.567 1011 505.5 1011C371.433 1011 242.857 957.742 148.058 862.942C53.2579 768.143 0 639.567 0 505.5C0 371.433 53.2579 242.857 148.058 148.058C242.857 53.2579 371.433 0 505.5 0C639.567 0 768.143 53.2579 862.942 148.058C957.742 242.857 1011 371.433 1011 505.5ZM601.545 710.228C604.498 716.945 608.785 722.992 614.147 728.003C619.508 733.013 625.832 736.881 632.734 739.373C639.636 741.865 646.972 742.928 654.297 742.499C661.623 742.069 668.784 740.155 675.348 736.874C681.911 733.592 687.739 729.011 692.478 723.408C697.217 717.806 700.768 711.299 702.915 704.282C705.063 697.265 705.762 689.886 704.971 682.59C704.18 675.295 701.914 668.237 698.312 661.844C669.282 603.423 593.529 559.661 505.5 559.661C417.471 559.661 341.79 603.423 312.688 661.844C309.086 668.237 306.82 675.295 306.029 682.59C305.238 689.886 305.937 697.265 308.085 704.282C310.232 711.299 313.783 717.806 318.522 723.408C323.261 729.011 329.089 733.592 335.652 736.874C342.216 740.155 349.377 742.069 356.703 742.499C364.028 742.928 371.364 741.865 378.266 739.373C385.168 736.881 391.492 733.013 396.853 728.003C402.215 722.992 406.502 716.945 409.455 710.228C416.46 696.435 449.028 667.982 505.5 667.982C561.972 667.982 594.54 696.435 601.545 710.228ZM649.929 505.5C635.564 505.5 621.788 499.794 611.631 489.637C601.474 479.48 595.768 465.704 595.768 451.339V379.125C595.768 364.761 601.474 350.985 611.631 340.828C621.788 330.67 635.564 324.964 649.929 324.964C664.293 324.964 678.069 330.67 688.226 340.828C698.383 350.985 704.089 364.761 704.089 379.125V451.339C704.089 465.704 698.383 479.48 688.226 489.637C678.069 499.794 664.293 505.5 649.929 505.5ZM306.911 451.339C306.911 465.704 312.617 479.48 322.774 489.637C332.931 499.794 346.707 505.5 361.071 505.5C375.436 505.5 389.212 499.794 399.369 489.637C409.526 479.48 415.232 465.704 415.232 451.339V379.125C415.232 364.761 409.526 350.985 399.369 340.828C389.212 330.67 375.436 324.964 361.071 324.964C346.707 324.964 332.931 330.67 322.774 340.828C312.617 350.985 306.911 364.761 306.911 379.125V451.339Z" fill="#FFFFFF"/>
</g>
<defs>
<clipPath id="clip0_997_11">
<rect width="1011" height="1011" fill="white"/>
</clipPath>
</defs>
</svg>
